<?xml version="1.0" encoding="UTF-8"?>
<svg version="1.1" viewBox="0 0 1500 935" xmlns="http://www.w3.org/2000/svg">
<g transform="translate(-.90909 .37854)">
<svg width="1500" height="935" data-background-color="#ffffff" viewBox="0 0 396 247" xmlns="http://www.w3.org/2000/svg" xmlns:xlink="http://www.w3.org/1999/xlink">
<g transform="translate(.24 -.1)">
<svg width="395.52" height="247.2" viewBox="0 0 395.52 247.2">
<svg/>
<svg width="395.52" height="247.2" viewBox="0 0 395.52 247.2">
<g transform="translate(75.544 95.829)">
<svg width="244.43" height="55.541" viewBox="0 0 244.43135999999998 55.541284095581595">
<svg width="244.43" height="55.541" viewBox="0 0 340.3153635342229 77.32867128074484">
<rect class="rect-qz-0" x="80.241" width="4.3238" height="77.329" rx="1%" fill="#1c4b82" stroke="transparent" stroke-width="0" data-fill-palette-color="primary" data-palette-color="#1c4b82"/>
<g transform="translate(95.884 .19236)">
<svg width="244.43" height="76.944" viewBox="0 0 244.43136 76.9439515231292">
<svg width="244.43" height="76.944" viewBox="0 0 244.43136 76.9439515231292">
<svg width="244.43" height="47.946" viewBox="0 0 244.43136 47.94568155922038">
<g>
<svg width="244.43" height="47.946" data-palette-color="#1c4b82" viewBox="0 -38.7 200.08 39.25">
<path class="wordmark-text-0" d="m8.85-29.45-8.85 0.7 0.55-5.75h23.75l-0.55 5.75-8.7-0.75-0.2 16.5 0.6 13h-7l0.6-12.15-0.2-17.3zm27.35 24.35q1.45 0 3.05-0.75t2.5-1.5l0.9-0.75 2.3 2.8q-0.5 0.85-1.55 1.95t-2.13 1.87q-1.07 0.78-2.85 1.4-1.77 0.63-3.67 0.63-4.05 0-6.6-3.08-2.55-3.07-2.55-7.92 0-6.1 3.55-10.7t8.3-4.6q3.65 0 5.67 2.05 2.03 2.05 2.03 5.75 0 2.2-0.75 5l-1 1.05-12.5 1.15q0.85 5.65 5.3 5.65zm0-15.5q-2.2 0-3.7 1.78-1.5 1.77-1.75 4.52l8.5-1.05q0.15-1.15 0.15-1.9 0-3.35-3.2-3.35zm20.85 15.95q2.59 0 2.59-2.3 0-0.8-1.12-1.5-1.13-0.7-2.75-1.4-1.63-0.7-3.25-1.58-1.63-0.87-2.75-2.42-1.13-1.55-1.13-3.55 0-3.35 2.95-5.85 2.96-2.5 6.8-2.5 1.81 0 3.53 0.42 1.72 0.43 3.33 1.33l-3.36 6.1q-0.34-0.3-0.9-0.75-0.54-0.45-2.07-1.18-1.53-0.72-2.7-0.72t-1.8 0.52q-0.62 0.53-0.62 1.46 0 0.92 1.72 1.84 1.72 0.93 3.78 1.7 2.04 0.78 3.77 2.55 1.73 1.78 1.73 4.23 0 3.5-2.88 6.15-2.87 2.65-6.62 2.65-2.41 0-4.48-1.05-2.08-1.05-2.98-2.1l-0.89-1.05 3.94-4.6q0.31 0.4 0.85 1 0.56 0.6 2.18 1.6 1.63 1 3.13 1zm10.64-5.8q0-6.4 3.45-10.85t8.08-4.45q4.62 0 7.2 3 2.57 3 2.57 7.95 0 6.6-3.32 10.97-3.33 4.38-8.38 4.38-4.15 0-6.87-3.13-2.73-3.12-2.73-7.87zm15.7-1.75q0-7.25-4.95-7.25-5.15 0-5.15 6.8 0 3.55 1.45 5.55t3.83 2q2.37 0 3.6-1.83 1.22-1.82 1.22-5.27zm9.35-11.95 6.05-1.3q0.45 3.85 0.6 7.3 4.55-7.05 8.55-7.05l-0.55 7.8q-2.9 0-4.57 0.52-1.68 0.53-3.43 2.08v1.8l0.55 11.75-6.7 1.25 0.6-12.15q-0.2-6.7-1.1-12zm16.85 13.7q0-6.4 3.45-10.85t8.07-4.45q4.63 0 7.2 3 2.58 3 2.58 7.95 0 6.6-3.33 10.97-3.32 4.38-8.37 4.38-4.15 0-6.88-3.13-2.72-3.12-2.72-7.87zm15.7-1.75q0-7.25-4.95-7.25-5.15 0-5.15 6.8 0 3.55 1.45 5.55t3.82 2q2.38 0 3.6-1.83 1.23-1.82 1.23-5.27zm29.1-22.3-0.55 5.35h-10.65l-0.3 9.2h9.55l-0.55 5.3h-9.15l-0.05 1.65 0.6 13h-7l0.6-12.15-0.6-22.35h18.1zm2.89 10.3 6.7-1.25-0.6 12.45 0.55 11.75-6.7 1.25 0.6-12.15-0.55-12.05zm-0.35-8.57q0-1.68 1.3-3 1.3-1.33 3-1.33t2.6 0.92q0.9 0.93 0.9 2.78t-1.27 3.17q-1.28 1.33-2.95 1.33-1.68 0-2.63-1.1t-0.95-2.77zm12.55-4.68 6.85-1.25-0.65 25.7 0.55 11.75-6.75 1.25 0.6-12.15-0.6-25.3zm21.65 32.35q1.45 0 3.05-0.75t2.5-1.5l0.9-0.75 2.3 2.8q-0.5 0.85-1.55 1.95t-2.13 1.87q-1.07 0.78-2.85 1.4-1.77 0.63-3.67 0.63-4.05 0-6.6-3.08-2.55-3.07-2.55-7.92 0-6.1 3.55-10.7t8.3-4.6q3.65 0 5.67 2.05 2.03 2.05 2.03 5.75 0 2.2-0.75 5l-1 1.05-12.5 1.15q0.85 5.65 5.3 5.65zm0-15.5q-2.2 0-3.7 1.78-1.5 1.77-1.75 4.52l8.5-1.05q0.15-1.15 0.15-1.9 0-3.35-3.2-3.35z" fill="#1c4b82" data-fill-palette-color="primary"/>
</svg>
</g>
</svg>
<g transform="translate(0 59.265)">
<svg width="143.51" height="17.679" viewBox="0 0 143.50565145599998 17.679445244134303">
<g>
<svg width="143.51" height="17.679" data-palette-color="#1c4b82" viewBox="3.98 -35.99 397.7 49.00000000000001">
<path class="slogan-text-1" d="m38.06-17.63q0 2.57-0.68 4.87-0.69 2.31-1.92 4.26-1.23 1.96-2.94 3.53-1.71 1.58-3.77 2.68-2.07 1.09-4.42 1.69-2.36 0.6-4.85 0.6h-15.5v-35.16h15.5q2.49 0 4.84 0.59 2.34 0.59 4.4 1.67 2.07 1.09 3.79 2.65t2.95 3.5q1.23 1.95 1.92 4.25 0.68 2.31 0.68 4.87zm-9.84 0q0-2.85-0.69-5.43-0.7-2.57-2.16-4.53-1.47-1.95-3.73-3.1t-5.4-1.15h-2.57v28.42h2.57q3.1 0 5.35-1.16 2.26-1.16 3.74-3.12 1.48-1.97 2.18-4.53 0.71-2.56 0.71-5.4zm44.8 3.47q0 2.2-0.59 4.13-0.58 1.92-1.62 3.56t-2.5 2.94q-1.47 1.31-3.21 2.21-1.75 0.9-3.74 1.39t-4.09 0.49-4.07-0.49q-1.98-0.49-3.73-1.39-1.74-0.9-3.21-2.21-1.46-1.3-2.5-2.94t-1.62-3.58q-0.59-1.94-0.59-4.11t0.59-4.11q0.58-1.94 1.62-3.58t2.5-2.94q1.47-1.31 3.21-2.21 1.75-0.91 3.73-1.39 1.97-0.49 4.07-0.49t4.09 0.49q1.99 0.48 3.74 1.39 1.74 0.9 3.21 2.21 1.46 1.3 2.5 2.94t1.62 3.58q0.59 1.94 0.59 4.11zm-8.4 0q0-1.17-0.13-2.48-0.14-1.3-0.45-2.56-0.32-1.26-0.87-2.42t-1.36-2.03q-0.8-0.86-1.92-1.39-1.13-0.52-2.62-0.52-1.41 0-2.51 0.54-1.1 0.53-1.92 1.42t-1.37 2.07q-0.54 1.17-0.89 2.43-0.34 1.25-0.48 2.54-0.15 1.28-0.15 2.4t0.15 2.4q0.14 1.29 0.48 2.56 0.35 1.27 0.89 2.43 0.55 1.15 1.37 2.05 0.82 0.89 1.92 1.42 1.1 0.54 2.51 0.54 1.47 0 2.59-0.52 1.12-0.53 1.94-1.41t1.36-2.02q0.53-1.15 0.86-2.42t0.47-2.56q0.13-1.3 0.13-2.47zm30.54-2.98-4.66 17.14h-7.42l-7.72-28.2h8.25l4.84 19.78 4.03-19.78h7.42l4.93 20.31 4.76-20.31h5.71l-8.54 28.2h-7.42l-4.18-17.14zm53.2 0.98q0 2.85-0.7 5.95-0.69 3.11-1.94 6.08-1.25 2.98-2.98 5.61-1.73 2.62-3.81 4.53l-3.1-1.69q0.66-1.22 1.25-2.73 0.58-1.52 1.06-3.21 0.48-1.7 0.85-3.51 0.38-1.8 0.64-3.57t0.39-3.45q0.13-1.67 0.13-3.11 0-0.95-0.07-2.04-0.07-1.08-0.3-2.17-0.24-1.09-0.63-2.09t-1.03-1.76q-0.65-0.75-1.57-1.22-0.91-0.46-2.16-0.46-1.22 0-2.17 0.55t-1.69 1.44q-0.73 0.89-1.25 2.04-0.53 1.15-0.86 2.35-0.33 1.21-0.47 2.38-0.15 1.18-0.15 2.1v14.14h-8.28v-28.2h3.18l3.78 6.57q0.69-1.64 1.71-2.98 1.03-1.34 2.32-2.29 1.29-0.96 2.87-1.47 1.57-0.51 3.4-0.51 2.93 0 5.11 0.95 2.17 0.95 3.61 2.65t2.15 4.03 0.71 5.09zm23.33-19h7.11q-0.66 1.98-1.15 4.09t-0.81 4.23q-0.31 2.11-0.47 4.16t-0.16 3.88q0 1.34 0.01 3.02 0.01 1.67 0.2 3.4 0.18 1.74 0.59 3.38 0.42 1.65 1.24 2.95 0.81 1.29 2.1 2.07 1.28 0.78 3.18 0.78 1.69 0 2.9-0.57 1.2-0.58 2.05-1.55 0.84-0.98 1.34-2.25t0.78-2.66 0.37-2.82q0.08-1.43 0.08-2.72v-19.39h9.69v17.87q0 3.84-1.22 7.13-1.22 3.3-3.44 5.73t-5.37 3.81-6.98 1.38q-2.64 0-4.91-0.75-2.27-0.74-4.16-2.05-1.89-1.3-3.37-3.1-1.48-1.79-2.47-3.92-0.99-2.12-1.5-4.48-0.51-2.35-0.46-4.77v-0.49q0.02-1.95 0.39-4.04 0.36-2.09 0.99-4.19 0.62-2.1 1.5-4.16t1.95-3.97zm65.36 21q0 3.08-0.93 5.76-0.93 2.69-2.69 4.68t-4.29 3.13q-2.54 1.15-5.77 1.15-2.46 0-4.53-0.96-2.06-0.97-3.52-2.97v16.38h-8.25v-41.21h3.17l3.66 6.13q0.54-1.54 1.48-2.8 0.94-1.25 2.17-2.14 1.23-0.9 2.71-1.38 1.48-0.49 3.11-0.49 3.23 0 5.77 1.15 2.53 1.14 4.29 3.13t2.69 4.68q0.93 2.68 0.93 5.76zm-8.38 0q0-1.07-0.11-2.28t-0.38-2.41q-0.27-1.19-0.74-2.29-0.48-1.1-1.21-1.94-0.73-0.85-1.77-1.35t-2.4-0.5q-1.42 0-2.46 0.49t-1.78 1.33q-0.75 0.84-1.22 1.93-0.48 1.09-0.75 2.28-0.26 1.2-0.37 2.42t-0.11 2.32q0 0.98 0.14 2.16 0.15 1.18 0.47 2.38 0.31 1.2 0.83 2.32 0.51 1.12 1.25 2 0.75 0.88 1.74 1.41 0.99 0.52 2.26 0.52 1.39 0 2.41-0.5 1.03-0.5 1.76-1.34t1.21-1.94q0.47-1.1 0.74-2.3 0.27-1.19 0.38-2.42 0.11-1.22 0.11-2.29zm53.61 9.69v4.47h-25.24v-35.16h9.69v30.69h15.55zm39.52-13.16q0 4.25-1.46 7.66-1.47 3.4-4.05 5.77-2.59 2.37-6.13 3.64t-7.67 1.27q-4.12 0-7.66-1.27t-6.13-3.64-4.05-5.77q-1.47-3.41-1.47-7.66 0-4.32 1.45-7.72 1.46-3.41 4.03-5.77 2.58-2.35 6.12-3.61t7.71-1.26q4.18 0 7.72 1.26t6.11 3.61q2.58 2.36 4.03 5.77 1.45 3.4 1.45 7.72zm-9.86 0q0-1.61-0.15-3.29-0.14-1.69-0.53-3.27-0.39-1.59-1.07-2.98-0.67-1.39-1.72-2.43t-2.52-1.64q-1.48-0.6-3.46-0.6-2 0-3.49 0.6t-2.54 1.63q-1.05 1.02-1.71 2.41t-1.03 2.97q-0.38 1.57-0.53 3.27t-0.15 3.33q0 1.61 0.15 3.3 0.15 1.68 0.54 3.26 0.39 1.57 1.06 2.96 0.67 1.4 1.72 2.43 1.05 1.04 2.53 1.65 1.47 0.61 3.45 0.61 1.93 0 3.37-0.62t2.49-1.69q1.05-1.06 1.75-2.46 0.69-1.4 1.1-2.98 0.4-1.57 0.57-3.23t0.17-3.23zm49.36 0.81v0.46q-0.05 2.05-0.42 4.25-0.38 2.2-1.07 4.4-0.68 2.19-1.63 4.34t-2.14 4.11q-1.18 1.97-2.55 3.69t-2.88 3.04l-3.64-2.1q0.86-1.44 1.55-3.14 0.7-1.69 1.26-3.55 0.56-1.85 0.96-3.81 0.41-1.95 0.68-3.88 0.26-1.93 0.4-3.8 0.13-1.86 0.13-3.55 0-1.32-0.01-2.99t-0.19-3.4q-0.19-1.74-0.6-3.39-0.42-1.64-1.24-2.94-0.81-1.29-2.1-2.07-1.28-0.78-3.18-0.78-1.69 0-2.89 0.57-1.21 0.57-2.06 1.54-0.84 0.96-1.34 2.23t-0.78 2.68q-0.28 1.4-0.37 2.83-0.08 1.43-0.08 2.7v6.81h10.52v4.03h-10.52v8.54h-9.69v-17.87q0-3.83 1.22-7.13t3.45-5.73q2.24-2.42 5.37-3.8 3.14-1.38 7-1.38 2.61 0 4.89 0.74 2.29 0.75 4.17 2.05 1.87 1.31 3.35 3.1 1.48 1.8 2.47 3.92 0.99 2.13 1.5 4.49 0.51 2.37 0.46 4.79zm40.38-0.81q0 2.57-0.68 4.87-0.69 2.31-1.92 4.26-1.23 1.96-2.94 3.53-1.71 1.58-3.77 2.68-2.07 1.09-4.42 1.69-2.36 0.6-4.85 0.6h-15.5v-35.16h15.5q2.49 0 4.84 0.59 2.34 0.59 4.4 1.67 2.07 1.09 3.79 2.65t2.95 3.5q1.23 1.95 1.92 4.25 0.68 2.31 0.68 4.87zm-9.84 0q0-2.85-0.69-5.43-0.7-2.57-2.16-4.53-1.47-1.95-3.73-3.1t-5.4-1.15h-2.57v28.42h2.57q3.1 0 5.35-1.16 2.26-1.16 3.74-3.12 1.48-1.97 2.18-4.53 0.71-2.56 0.71-5.4z" fill="#1c4b82" data-fill-palette-color="secondary"/>
</svg>
</g>
</svg>
</g>
</svg>
</svg>
</g>
<g transform="translate(0 .19236)">
<svg width="68.923" height="76.944" viewBox="0 0 68.92256305172002 76.9439515231292">
<svg class="icon-icon-0" width="68.923" height="76.944" enable-background="new 0 0 96 96" data-fill-palette-color="accent" version="1.1" viewBox="5.003976949608646 0 85.99202305039137 96" xml:space="preserve" xmlns="http://www.w3.org/2000/svg" xmlns:xlink="http://www.w3.org/1999/xlink"><path d="M42.876 96L42.876 96c-0.628 0-1.224-0.3-1.596-0.805l-35.876-48c-0.452-0.608-0.528-1.416-0.192-2.092C5.552 44.428 6.248 44 7 44h18v-0.404C25 22.52 33.84 0 58.648 0h30.348c1.104 0 2 0.896 2 2s-0.896 2-2 2C63.732 4 61 31.692 61 43.596V44h18c0.756 0 1.452 0.428 1.788 1.108 0.34 0.676 0.26 1.488-0.192 2.092l-36.124 48C44.096 95.708 43.504 96 42.876 96z" fill="#1c4b82" data-fill-palette-color="accent"/></svg>
</svg>
</g>
</svg>
</svg>
</g>
<path d="m0 123.6c0-68.262 55.338-123.6 123.6-123.6 57.255 0 105.42 38.93 119.46 91.764h-1.607c-14.003-51.967-61.462-90.212-117.85-90.211-67.405 0-122.05 54.642-122.05 122.05s54.642 122.05 122.05 122.05c56.391 0 103.85-38.245 117.85-90.211h1.607c-14.044 52.834-62.206 91.764-119.46 91.764-68.262 0-123.6-55.338-123.6-123.6z" fill="#1c4b82" stroke="transparent" data-fill-palette-color="tertiary"/>
</svg>
</svg>
<rect width="395.52" height="247.2" fill="none" visibility="hidden"/>
</g>
</svg>
</g>
</svg>