<?xml version="1.0" encoding="UTF-8"?>
<svg version="1.1" viewBox="0 0 1500 935" xmlns="http://www.w3.org/2000/svg">
<g transform="translate(-.90909 .37854)">
<svg width="1500" height="935" data-background-color="#ffffff" viewBox="0 0 396 247" xmlns="http://www.w3.org/2000/svg" xmlns:xlink="http://www.w3.org/1999/xlink">
<g transform="translate(.24 -.1)">
<svg width="395.52" height="247.2" viewBox="0 0 395.52 247.2">
<svg/>
<svg width="395.52" height="247.2" viewBox="0 0 395.52 247.2">
<g transform="translate(75.544 92.494)">
<svg width="244.43" height="62.211" viewBox="0 0 244.43135999999996 62.21105712500721">
<svg width="244.43" height="62.211" viewBox="0 0 351.020462076943 89.33941217000604">
<rect class="rect-qz-0" x="90.946" width="4.3238" height="89.339" rx="1%" fill="#1c4b82" stroke="transparent" stroke-width="0" data-fill-palette-color="primary" data-palette-color="#1c4b82"/>
<g transform="translate(106.59 .22224)">
<svg width="244.43" height="88.895" viewBox="0 0 244.43136 88.8949374825931">
<svg width="244.43" height="88.895" viewBox="0 0 244.43136 88.8949374825931">
<svg width="244.43" height="47.946" viewBox="0 0 244.43136 47.94568155922038">
<g>
<svg width="244.43" height="47.946" data-palette-color="#1c4b82" viewBox="0 -38.7 200.08 39.25">
<path class="wordmark-text-0" d="m8.85-29.45-8.85 0.7 0.55-5.75h23.75l-0.55 5.75-8.7-0.75-0.2 16.5 0.6 13h-7l0.6-12.15-0.2-17.3zm27.35 24.35q1.45 0 3.05-0.75t2.5-1.5l0.9-0.75 2.3 2.8q-0.5 0.85-1.55 1.95t-2.13 1.87q-1.07 0.78-2.85 1.4-1.77 0.63-3.67 0.63-4.05 0-6.6-3.08-2.55-3.07-2.55-7.92 0-6.1 3.55-10.7t8.3-4.6q3.65 0 5.67 2.05 2.03 2.05 2.03 5.75 0 2.2-0.75 5l-1 1.05-12.5 1.15q0.85 5.65 5.3 5.65zm0-15.5q-2.2 0-3.7 1.78-1.5 1.77-1.75 4.52l8.5-1.05q0.15-1.15 0.15-1.9 0-3.35-3.2-3.35zm20.85 15.95q2.59 0 2.59-2.3 0-0.8-1.12-1.5-1.13-0.7-2.75-1.4-1.63-0.7-3.25-1.58-1.63-0.87-2.75-2.42-1.13-1.55-1.13-3.55 0-3.35 2.95-5.85 2.96-2.5 6.8-2.5 1.81 0 3.53 0.42 1.72 0.43 3.33 1.33l-3.36 6.1q-0.34-0.3-0.9-0.75-0.54-0.45-2.07-1.18-1.53-0.72-2.7-0.72t-1.8 0.52q-0.62 0.53-0.62 1.46 0 0.92 1.72 1.84 1.72 0.93 3.78 1.7 2.04 0.78 3.77 2.55 1.73 1.78 1.73 4.23 0 3.5-2.88 6.15-2.87 2.65-6.62 2.65-2.41 0-4.48-1.05-2.08-1.05-2.98-2.1l-0.89-1.05 3.94-4.6q0.31 0.4 0.85 1 0.56 0.6 2.18 1.6 1.63 1 3.13 1zm10.64-5.8q0-6.4 3.45-10.85t8.08-4.45q4.62 0 7.2 3 2.57 3 2.57 7.95 0 6.6-3.32 10.97-3.33 4.38-8.38 4.38-4.15 0-6.87-3.13-2.73-3.12-2.73-7.87zm15.7-1.75q0-7.25-4.95-7.25-5.15 0-5.15 6.8 0 3.55 1.45 5.55t3.83 2q2.37 0 3.6-1.83 1.22-1.82 1.22-5.27zm9.35-11.95 6.05-1.3q0.45 3.85 0.6 7.3 4.55-7.05 8.55-7.05l-0.55 7.8q-2.9 0-4.57 0.52-1.68 0.53-3.43 2.08v1.8l0.55 11.75-6.7 1.25 0.6-12.15q-0.2-6.7-1.1-12zm16.85 13.7q0-6.4 3.45-10.85t8.07-4.45q4.63 0 7.2 3 2.58 3 2.58 7.95 0 6.6-3.33 10.97-3.32 4.38-8.37 4.38-4.15 0-6.88-3.13-2.72-3.12-2.72-7.87zm15.7-1.75q0-7.25-4.95-7.25-5.15 0-5.15 6.8 0 3.55 1.45 5.55t3.82 2q2.38 0 3.6-1.83 1.23-1.82 1.23-5.27zm29.1-22.3-0.55 5.35h-10.65l-0.3 9.2h9.55l-0.55 5.3h-9.15l-0.05 1.65 0.6 13h-7l0.6-12.15-0.6-22.35h18.1zm2.89 10.3 6.7-1.25-0.6 12.45 0.55 11.75-6.7 1.25 0.6-12.15-0.55-12.05zm-0.35-8.57q0-1.68 1.3-3 1.3-1.33 3-1.33t2.6 0.92q0.9 0.93 0.9 2.78t-1.27 3.17q-1.28 1.33-2.95 1.33-1.68 0-2.63-1.1t-0.95-2.77zm12.55-4.68 6.85-1.25-0.65 25.7 0.55 11.75-6.75 1.25 0.6-12.15-0.6-25.3zm21.65 32.35q1.45 0 3.05-0.75t2.5-1.5l0.9-0.75 2.3 2.8q-0.5 0.85-1.55 1.95t-2.13 1.87q-1.07 0.78-2.85 1.4-1.77 0.63-3.67 0.63-4.05 0-6.6-3.08-2.55-3.07-2.55-7.92 0-6.1 3.55-10.7t8.3-4.6q3.65 0 5.67 2.05 2.03 2.05 2.03 5.75 0 2.2-0.75 5l-1 1.05-12.5 1.15q0.85 5.65 5.3 5.65zm0-15.5q-2.2 0-3.7 1.78-1.5 1.77-1.75 4.52l8.5-1.05q0.15-1.15 0.15-1.9 0-3.35-3.2-3.35z" fill="#1c4b82" data-fill-palette-color="primary"/>
</svg>
</g>
</svg>
<g transform="translate(0 59.265)">
<svg width="142.01" height="29.63" viewBox="0 0 142.01308961927316 29.630431203598196">
<g>
<svg width="142.01" height="29.63" data-palette-color="#1c4b82" viewBox="2.335614035087719 -35.99 234.83438596491226 49.00000000000001">
<path class="slogan-text-1" d="m7.18-35.16h7.1q-0.66 1.98-1.15 4.09-0.48 2.11-0.8 4.23-0.32 2.11-0.48 4.16t-0.16 3.88q0 1.34 0.02 3.02 0.01 1.67 0.19 3.4 0.18 1.74 0.6 3.38 0.42 1.65 1.23 2.95 0.82 1.29 2.1 2.07t3.19 0.78q1.68 0 2.89-0.57 1.21-0.58 2.05-1.55 0.84-0.98 1.35-2.25 0.5-1.27 0.78-2.66t0.36-2.82q0.09-1.43 0.09-2.72v-19.39h9.69v17.87q0 3.84-1.22 7.13-1.22 3.3-3.44 5.73t-5.37 3.81-6.99 1.38q-2.63 0-4.9-0.75-2.27-0.74-4.17-2.05-1.89-1.3-3.37-3.1-1.47-1.79-2.46-3.92-0.99-2.12-1.5-4.48-0.52-2.35-0.47-4.77v-0.49q0.03-1.95 0.39-4.04 0.37-2.09 0.99-4.19 0.63-2.1 1.5-4.16 0.88-2.06 1.96-3.97zm65.35 21q0 3.08-0.93 5.76-0.92 2.69-2.68 4.68t-4.3 3.13q-2.54 1.15-5.76 1.15-2.47 0-4.53-0.96-2.06-0.97-3.53-2.97v16.38h-8.25v-41.21h3.18l3.66 6.13q0.53-1.54 1.47-2.8 0.94-1.25 2.18-2.14 1.23-0.9 2.71-1.38 1.47-0.49 3.11-0.49 3.22 0 5.76 1.15 2.54 1.14 4.3 3.13t2.68 4.68q0.93 2.68 0.93 5.76zm-8.37 0q0-1.07-0.11-2.28t-0.38-2.41q-0.27-1.19-0.75-2.29-0.47-1.1-1.2-1.94-0.74-0.85-1.77-1.35-1.04-0.5-2.41-0.5-1.41 0-2.45 0.49t-1.78 1.33q-0.75 0.84-1.23 1.93-0.47 1.09-0.74 2.28-0.27 1.2-0.38 2.42t-0.11 2.32q0 0.98 0.15 2.16 0.14 1.18 0.46 2.38t0.83 2.32q0.52 1.12 1.26 2t1.73 1.41q0.99 0.52 2.26 0.52 1.39 0 2.42-0.5 1.02-0.5 1.76-1.34 0.73-0.84 1.2-1.94 0.48-1.1 0.75-2.3 0.27-1.19 0.38-2.42 0.11-1.22 0.11-2.29zm53.61 9.69v4.47h-25.25v-35.16h9.69v30.69h15.56zm39.52-13.16q0 4.25-1.47 7.66-1.46 3.4-4.05 5.77t-6.13 3.64-7.66 1.27q-4.13 0-7.67-1.27t-6.13-3.64q-2.58-2.37-4.05-5.77-1.46-3.41-1.46-7.66 0-4.32 1.45-7.72 1.45-3.41 4.03-5.77 2.57-2.35 6.11-3.61t7.72-1.26q4.17 0 7.71 1.26t6.12 3.61q2.57 2.36 4.03 5.77 1.45 3.4 1.45 7.72zm-9.86 0q0-1.61-0.15-3.29-0.15-1.69-0.54-3.27-0.39-1.59-1.06-2.98t-1.72-2.43-2.53-1.64q-1.47-0.6-3.45-0.6-2 0-3.49 0.6t-2.54 1.63q-1.05 1.02-1.71 2.41t-1.04 2.97q-0.38 1.57-0.52 3.27-0.15 1.7-0.15 3.33 0 1.61 0.15 3.3 0.14 1.68 0.53 3.26 0.39 1.57 1.07 2.96 0.67 1.4 1.72 2.43 1.05 1.04 2.52 1.65 1.48 0.61 3.46 0.61 1.93 0 3.37-0.62t2.49-1.69q1.05-1.06 1.74-2.46 0.7-1.4 1.1-2.98 0.4-1.57 0.58-3.23 0.17-1.66 0.17-3.23zm49.36 0.81v0.46q-0.05 2.05-0.43 4.25t-1.06 4.4q-0.68 2.19-1.64 4.34-0.95 2.15-2.13 4.11-1.19 1.97-2.55 3.69-1.37 1.72-2.88 3.04l-3.64-2.1q0.85-1.44 1.55-3.14 0.69-1.69 1.26-3.55 0.56-1.85 0.96-3.81 0.4-1.95 0.67-3.88t0.4-3.8q0.14-1.86 0.14-3.55 0-1.32-0.01-2.99-0.02-1.67-0.2-3.4-0.18-1.74-0.6-3.39-0.41-1.64-1.23-2.94-0.82-1.29-2.1-2.07t-3.19-0.78q-1.68 0-2.89 0.57t-2.05 1.54q-0.84 0.96-1.34 2.23t-0.78 2.68q-0.28 1.4-0.37 2.83t-0.09 2.7v6.81h10.53v4.03h-10.53v8.54h-9.69v-17.87q0-3.83 1.22-7.13t3.46-5.73q2.23-2.42 5.37-3.8t6.99-1.38q2.62 0 4.9 0.74 2.28 0.75 4.16 2.05 1.88 1.31 3.36 3.1 1.48 1.8 2.46 3.92 0.99 2.13 1.51 4.49 0.51 2.37 0.46 4.79zm40.38-0.81q0 2.57-0.69 4.87-0.68 2.31-1.91 4.26-1.24 1.96-2.94 3.53-1.71 1.58-3.78 2.68-2.06 1.09-4.42 1.69-2.35 0.6-4.84 0.6h-15.5v-35.16h15.5q2.49 0 4.83 0.59 2.35 0.59 4.41 1.67 2.06 1.09 3.78 2.65t2.96 3.5q1.23 1.95 1.91 4.25 0.69 2.31 0.69 4.87zm-9.84 0q0-2.85-0.7-5.43-0.69-2.57-2.16-4.53-1.46-1.95-3.72-3.1t-5.41-1.15h-2.56v28.42h2.56q3.1 0 5.36-1.16t3.74-3.12q1.47-1.97 2.18-4.53t0.71-5.4z" fill="#1c4b82" data-fill-palette-color="secondary"/>
</svg>
</g>
</svg>
</g>
</svg>
</svg>
</g>
<g transform="translate(0 .22224)">
<svg width="79.628" height="88.895" viewBox="0 0 79.62766159444006 88.8949374825931">
<svg class="icon-icon-0" width="79.628" height="88.895" enable-background="new 0 0 96 96" data-fill-palette-color="accent" version="1.1" viewBox="5.003976949608646 0 85.99202305039137 96" xml:space="preserve" xmlns="http://www.w3.org/2000/svg" xmlns:xlink="http://www.w3.org/1999/xlink"><path d="M88.996 92C63.732 92 61 64.309 61 52.408V52h18c0.756 0 1.452-0.428 1.788-1.107 0.34-0.673 0.26-1.492-0.192-2.093l-36.124-48C44.096 0.296 43.504 0 42.876 0c-0.524 0-1.224 0.296-1.596 0.804l-35.876 48c-0.452 0.607-0.528 1.415-0.192 2.092C5.552 51.572 6.248 52 7 52h18v0.408C25 73.484 33.84 96 58.648 96h30.348c1.104 0 2-0.9 2-2S90.1 92 88.996 92z" fill="#1c4b82" data-fill-palette-color="accent"/></svg>
</svg>
</g>
</svg>
</svg>
</g>
<path d="m0 123.6c0-68.262 55.338-123.6 123.6-123.6 56.089 0 103.45 37.361 118.56 88.554h-1.571c-15.062-50.35-61.74-87.048-116.99-87.049-67.431 0-122.1 54.664-122.1 122.1s54.664 122.1 122.1 122.1c55.25 0 101.93-36.698 116.99-87.049h1.571c-15.109 51.193-62.472 88.554-118.56 88.554-68.262 0-123.6-55.338-123.6-123.6z" fill="#1c4b82" stroke="transparent" data-fill-palette-color="tertiary"/>
</svg>
</svg>
<rect width="395.52" height="247.2" fill="none" visibility="hidden"/>
</g>
</svg>
</g>
</svg>