<?xml version="1.0" encoding="UTF-8"?>
<svg version="1.1" viewBox="0 0 1500 261" xmlns="http://www.w3.org/2000/svg">
<g transform="translate(-.90909 -.66888)">
<svg width="1500" height="261" data-background-color="#ffffff" viewBox="0 0 396 69" xmlns="http://www.w3.org/2000/svg" xmlns:xlink="http://www.w3.org/1999/xlink">
<g transform="translate(.24 .17683)">
<svg width="395.52" height="68.646" viewBox="0 0 395.52 68.64633763601462">
<svg width="395.52" height="68.646" viewBox="0 0 395.52 68.64633763601462">
<svg width="395.52" height="68.646" viewBox="0 0 578.861262789799 100.4669945638105">
<rect class="rect-qz-0" x="157.12" y="9.8458" width="7.2482" height="80.775" rx="1%" fill="#1c4b82" stroke="transparent" stroke-width="0" data-fill-palette-color="primary" data-palette-color="#1c4b82"/>
<g transform="translate(183.34 10.047)">
<svg width="395.52" height="80.374" viewBox="0 0 395.52000000000004 80.3735956510484">
<svg width="395.52" height="80.374" viewBox="0 0 395.52000000000004 80.3735956510484">
<svg width="395.52" height="80.374" viewBox="0 0 395.52000000000004 80.3735956510484">
<g>
<svg width="395.52" height="80.374" data-palette-color="#1c4b82" viewBox="0 -38.7 193.13 39.25">
<path class="wordmark-text-0" d="m8.85-29.45-8.85 0.7 0.55-5.75h23.75l-0.55 5.75-8.7-0.75-0.2 16.5 0.6 13h-7l0.6-12.15-0.2-17.3zm27.35 24.35q1.45 0 3.05-0.75t2.5-1.5l0.9-0.75 2.3 2.8q-0.5 0.85-1.55 1.95t-2.13 1.87q-1.07 0.78-2.85 1.4-1.77 0.63-3.67 0.63-4.05 0-6.6-3.08-2.55-3.07-2.55-7.92 0-6.1 3.55-10.7t8.3-4.6q3.65 0 5.67 2.05 2.03 2.05 2.03 5.75 0 2.2-0.75 5l-1 1.05-12.5 1.15q0.85 5.65 5.3 5.65zm0-15.5q-2.2 0-3.7 1.78-1.5 1.77-1.75 4.52l8.5-1.05q0.15-1.15 0.15-1.9 0-3.35-3.2-3.35zm20.85 15.95q2.59 0 2.59-2.3 0-0.8-1.12-1.5-1.13-0.7-2.75-1.4-1.63-0.7-3.25-1.58-1.63-0.87-2.75-2.42-1.13-1.55-1.13-3.55 0-3.35 2.95-5.85 2.96-2.5 6.8-2.5 1.81 0 3.53 0.42 1.72 0.43 3.33 1.33l-3.36 6.1q-0.34-0.3-0.9-0.75-0.54-0.45-2.07-1.18-1.53-0.72-2.7-0.72t-1.8 0.52q-0.62 0.53-0.62 1.46 0 0.92 1.72 1.84 1.72 0.93 3.78 1.7 2.04 0.78 3.77 2.55 1.73 1.78 1.73 4.23 0 3.5-2.88 6.15-2.87 2.65-6.62 2.65-2.41 0-4.48-1.05-2.08-1.05-2.98-2.1l-0.89-1.05 3.94-4.6q0.31 0.4 0.85 1 0.56 0.6 2.18 1.6 1.63 1 3.13 1zm10.64-5.8q0-6.4 3.45-10.85t8.08-4.45q4.62 0 7.2 3 2.57 3 2.57 7.95 0 6.6-3.32 10.97-3.33 4.38-8.38 4.38-4.15 0-6.87-3.13-2.73-3.12-2.73-7.87zm15.7-1.75q0-7.25-4.95-7.25-5.15 0-5.15 6.8 0 3.55 1.45 5.55t3.83 2q2.37 0 3.6-1.83 1.22-1.82 1.22-5.27zm9.35-11.95 6.05-1.3q0.45 3.85 0.6 7.3 4.55-7.05 8.55-7.05l-0.55 7.8q-2.9 0-4.57 0.52-1.68 0.53-3.43 2.08v1.8l0.55 11.75-6.7 1.25 0.6-12.15q-0.2-6.7-1.1-12zm16.85 13.7q0-6.4 3.45-10.85t8.07-4.45q4.63 0 7.2 3 2.58 3 2.58 7.95 0 6.6-3.33 10.97-3.32 4.38-8.37 4.38-4.15 0-6.88-3.13-2.72-3.12-2.72-7.87zm15.7-1.75q0-7.25-4.95-7.25-5.15 0-5.15 6.8 0 3.55 1.45 5.55t3.82 2q2.38 0 3.6-1.83 1.23-1.82 1.23-5.27zm24.8-26.05-1.55 5.7q-1.85-0.45-3.35-0.45t-2.18 0.9q-0.67 0.9-0.67 3.15l-0.05 4.75h5.4l-0.55 4.1h-4.85l-0.05 7.1 0.55 11.75-6.75 1.25 0.6-12.15-0.2-7.95h-3.3l0.55-4.1h2.65l-0.05-3.8q0-4.45 2.75-7.58 2.75-3.12 6.7-3.12 2.1 0 4.35 0.45zm0.24 14.05 6.7-1.25-0.6 12.45 0.55 11.75-6.7 1.25 0.6-12.15-0.55-12.05zm-0.35-8.57q0-1.68 1.3-3 1.3-1.33 3-1.33t2.6 0.92q0.9 0.93 0.9 2.78t-1.27 3.17q-1.28 1.33-2.95 1.33-1.68 0-2.63-1.1t-0.95-2.77zm12.55-4.68 6.85-1.25-0.65 25.7 0.55 11.75-6.75 1.25 0.6-12.15-0.6-25.3zm21.65 32.35q1.45 0 3.05-0.75t2.5-1.5l0.9-0.75 2.3 2.8q-0.5 0.85-1.55 1.95t-2.13 1.87q-1.07 0.78-2.85 1.4-1.77 0.63-3.67 0.63-4.05 0-6.6-3.08-2.55-3.07-2.55-7.92 0-6.1 3.55-10.7t8.3-4.6q3.65 0 5.67 2.05 2.03 2.05 2.03 5.75 0 2.2-0.75 5l-1 1.05-12.5 1.15q0.85 5.65 5.3 5.65zm0-15.5q-2.2 0-3.7 1.78-1.5 1.77-1.75 4.52l8.5-1.05q0.15-1.15 0.15-1.9 0-3.35-3.2-3.35z" fill="#1c4b82" data-fill-palette-color="primary"/>
</svg>
</g>
</svg>
</svg>
</svg>
</g>
<svg width="138.14" height="100.47" viewBox="0 0 138.1445350546029 100.4669945638105">
<svg class="icon-icon-0" width="138.14" height="100.47" enable-background="new 0 0 100 72.726" data-fill-palette-color="accent" version="1.1" viewBox="0 0 100 72.726" xml:space="preserve" xmlns="http://www.w3.org/2000/svg" xmlns:xlink="http://www.w3.org/1999/xlink"><path d="m36.363 72.726c-20.082 0-36.363-16.279-36.363-36.362 0-20.085 16.281-36.364 36.363-36.364 13.648 0 25.523 7.528 31.743 18.646 1.51-0.257 3.041-0.466 4.622-0.466 15.063 0 27.272 12.213 27.272 27.275 0 15.059-12.209 27.271-27.271 27.271h-36.366zm36.366-9.092c10.042 0 18.184-8.143 18.184-18.18 0-10.041-8.142-18.183-18.184-18.183-3.639 0-7.006 1.093-9.852 2.935-2.797-12.083-13.577-21.116-26.514-21.116-15.06 0-27.271 12.21-27.271 27.274 0 15.062 12.211 27.271 27.271 27.271 8.222-1e-3 29.501-1e-3 36.366-1e-3z" fill="#1c4b82" data-fill-palette-color="accent"/></svg>
</svg>
</svg>
</svg>
</svg>
<rect width="395.52" height="68.646" fill="none" visibility="hidden"/>
</g>
</svg>
</g>
</svg>